<svg width="25" height="24" viewBox="0 0 25 24" fill="none" xmlns="http://www.w3.org/2000/svg">
<path fill-rule="evenodd" clip-rule="evenodd" d="M5.79846 14C6.90303 14 7.79846 13.1046 7.79846 12C7.79846 10.8954 6.90303 10 5.79846 10C4.69389 10 3.79846 10.8954 3.79846 12C3.79846 13.1046 4.69389 14 5.79846 14ZM12.7985 14C13.903 14 14.7985 13.1046 14.7985 12C14.7985 10.8954 13.903 10 12.7985 10C11.6939 10 10.7985 10.8954 10.7985 12C10.7985 13.1046 11.6939 14 12.7985 14ZM21.7985 12C21.7985 13.1046 20.903 14 19.7985 14C18.6939 14 17.7985 13.1046 17.7985 12C17.7985 10.8954 18.6939 10 19.7985 10C20.903 10 21.7985 10.8954 21.7985 12Z" fill="#A0A7BA"/>
</svg>
