<svg width="43" height="14" viewBox="0 0 43 14" fill="none" xmlns="http://www.w3.org/2000/svg">
<path d="M17.4744 0.327026L15.3145 13.0022H18.7689L20.9306 0.327026H17.4744Z" fill="white"/>
<path d="M12.4179 0.341227L9.03456 8.98534L8.67383 7.68015C8.00658 6.10752 6.11232 3.84898 3.88843 2.42562L6.98215 12.996L10.6374 12.9898L16.0776 0.338562L12.4179 0.341227Z" fill="white"/>
<path d="M7.36237 1.24845C7.16157 0.476351 6.57961 0.246232 5.85727 0.218689H0.501456L0.457031 0.47102C4.62494 1.48212 7.38281 3.91836 8.52718 6.84771L7.36237 1.24845Z" fill="white"/>
<path d="M27.9318 2.75707C29.062 2.7393 29.8812 2.9863 30.5173 3.24219L30.8292 3.38879L31.2965 0.64158C30.6124 0.384807 29.54 0.109375 28.2019 0.109375C24.7884 0.109375 22.3823 1.8286 22.3637 4.29238C22.3415 6.1129 24.0776 7.12933 25.389 7.73617C26.735 8.35811 27.1864 8.75349 27.1802 9.30879C27.1695 10.1573 26.1069 10.5465 25.1144 10.5465C23.7311 10.5465 22.9963 10.3554 21.8617 9.88276L21.4165 9.68018L20.9305 12.5171C21.7391 12.8716 23.2308 13.1764 24.7795 13.1924C28.4107 13.1924 30.7706 11.4936 30.7954 8.861C30.8105 7.42076 29.8892 6.32169 27.8927 5.41988C26.6844 4.8317 25.9452 4.44076 25.9523 3.84725C25.9523 3.32038 26.5796 2.75707 27.9318 2.75707Z" fill="white"/>
<path fill-rule="evenodd" clip-rule="evenodd" d="M37.4928 0.341309H40.1618L42.957 13.0094H39.7522C39.7522 13.0094 39.4342 11.5532 39.3311 11.1107C39.0654 11.1107 37.9531 11.1092 36.9058 11.1078C35.9743 11.1065 35.0943 11.1054 34.9073 11.1054C34.7731 11.4474 34.1814 13.0094 34.1814 13.0094H30.5537L35.683 1.39328C36.0472 0.566985 36.6639 0.341309 37.4928 0.341309ZM37.2779 4.96858C37.2779 4.96858 36.1859 7.78331 35.9016 8.51099H38.7714L37.9709 4.8513L37.7381 3.75846C37.6508 3.99184 37.5343 4.29474 37.4403 4.53925C37.3421 4.79461 37.2683 4.98628 37.2779 4.96858Z" fill="white"/>
</svg>
