<svg width="1002" height="818" viewBox="0 0 1002 818" fill="none" xmlns="http://www.w3.org/2000/svg">
<path fill-rule="evenodd" clip-rule="evenodd" d="M27.1721 816.661C41.4393 816.661 53.0051 805.095 53.0051 790.828C53.0051 776.561 41.4393 764.995 27.1721 764.995C12.9049 764.995 1.33907 776.561 1.33907 790.828C1.33907 805.095 12.9049 816.661 27.1721 816.661Z" stroke="white" stroke-width="2"/>
<path fill-rule="evenodd" clip-rule="evenodd" d="M618.378 25.5605C622.035 25.5605 625 22.596 625 18.939C625 15.282 622.035 12.3174 618.378 12.3174C614.721 12.3174 611.757 15.282 611.757 18.939C611.757 22.596 614.721 25.5605 618.378 25.5605Z" stroke="white" stroke-width="2"/>
<path fill-rule="evenodd" clip-rule="evenodd" d="M524.378 672.56C528.035 672.56 531 669.596 531 665.939C531 662.282 528.035 659.317 524.378 659.317C520.721 659.317 517.757 662.282 517.757 665.939C517.757 669.596 520.721 672.56 524.378 672.56Z" stroke="white" stroke-width="2"/>
<path fill-rule="evenodd" clip-rule="evenodd" d="M991.172 800C996.238 800 1000.34 795.893 1000.34 790.828C1000.34 785.762 996.238 781.656 991.172 781.656C986.106 781.656 982 785.762 982 790.828C982 795.893 986.106 800 991.172 800Z" stroke="white" stroke-width="2"/>
<path fill-rule="evenodd" clip-rule="evenodd" d="M634.172 784.995C639.238 784.995 643.344 780.888 643.344 775.823C643.344 770.757 639.238 766.651 634.172 766.651C629.106 766.651 625 770.757 625 775.823C625 780.888 629.106 784.995 634.172 784.995Z" stroke="white" stroke-width="2"/>
<path fill-rule="evenodd" clip-rule="evenodd" d="M935.172 49.8442C940.238 49.8442 944.344 45.7377 944.344 40.6721C944.344 35.6065 940.238 31.5 935.172 31.5C930.106 31.5 926 35.6065 926 40.6721C926 45.7377 930.106 49.8442 935.172 49.8442Z" stroke="white" stroke-width="2"/>
<path fill-rule="evenodd" clip-rule="evenodd" d="M27.1721 316.172C32.2377 316.172 36.3442 312.066 36.3442 307C36.3442 301.934 32.2377 297.828 27.1721 297.828C22.1065 297.828 18 301.934 18 307C18 312.066 22.1065 316.172 27.1721 316.172Z" stroke="white" stroke-width="2"/>
<path fill-rule="evenodd" clip-rule="evenodd" d="M18 31.5C26.2469 31.5 32.9323 24.8145 32.9323 16.5676C32.9323 8.3207 26.2469 1.63525 18 1.63525C9.75303 1.63525 3.06758 8.3207 3.06758 16.5676C3.06758 24.8145 9.75303 31.5 18 31.5Z" stroke="white" stroke-width="2"/>
</svg>
